<?xml version="1.0"?>
<svg xmlns="http://www.w3.org/2000/svg" viewBox="0 0 32 32">
    <path style="text-indent:0;text-align:start;line-height:normal;text-transform:none;block-progression:tb;-inkscape-font-specification:Bitstream Vera Sans" d="M 5 4 L 5 5 L 5 6 L 5 6.34375 L 5.21875 6.625 L 13 16.34375 L 13 26 L 13 28.03125 L 14.59375 26.78125 L 16.15625 25.59375 C 16.904325 29.233547 20.144371 32 24 32 C 28.406433 32 32 28.406433 32 24 C 32 19.593567 28.406433 16 24 16 C 22.111843 16 20.370873 16.680384 19 17.78125 L 19 16.34375 L 26.78125 6.625 L 27 6.34375 L 27 6 L 27 5 L 27 4 L 26 4 L 6 4 L 5 4 z M 7.28125 6 L 24.71875 6 L 17.53125 15 L 14.46875 15 L 7.28125 6 z M 15 17 L 17 17 L 17 20.125 C 16.48744 21.04728 16.143304 22.089812 16.03125 23.1875 L 15 24 L 15 17 z M 24 18 C 27.325553 18 30 20.674447 30 24 C 30 27.325553 27.325553 30 24 30 C 20.674447 30 18 27.325553 18 24 C 18 20.674447 20.674447 18 24 18 z M 21.71875 20.28125 L 20.28125 21.71875 L 22.5625 24 L 20.28125 26.28125 L 21.71875 27.71875 L 24 25.4375 L 26.28125 27.71875 L 27.71875 26.28125 L 25.4375 24 L 27.71875 21.71875 L 26.28125 20.28125 L 24 22.5625 L 21.71875 20.28125 z" overflow="visible" font-family="Bitstream Vera Sans"/>
</svg>
